<svg xmlns="http://www.w3.org/2000/svg" xmlns:xlink="http://www.w3.org/1999/xlink" width="151.443" height="151.443" viewBox="0 0 151.443 151.443">
  <defs>
    <clipPath id="clip-path">
      <path id="Path_122" data-name="Path 122" d="M140.6,38A75.2,75.2,0,1,1,109.4,8.7"/>
    </clipPath>
    <clipPath id="clip-path-3">
      <circle id="Ellipse_27" data-name="Ellipse 27" cx="17.3" cy="17.3" r="17.3" transform="translate(55.8 68.3)"/>
    </clipPath>
    <radialGradient id="radial-gradient" cx="17.33" cy="17.274" r="17.322" gradientTransform="matrix(0.963, 0.268, -0.268, 0.963, 5.266, -4.014)" gradientUnits="userSpaceOnUse">
      <stop offset="0" stop-color="#fff" stop-opacity="0"/>
      <stop offset="0.739" stop-color="#fdfdfd" stop-opacity="0.737"/>
      <stop offset="1" stop-color="#f8f7f7"/>
    </radialGradient>
  </defs>
  <g id="PB1" transform="translate(0.022 0.022)">
    <g id="Group_70" data-name="Group 70">
      <g id="Group_64" data-name="Group 64" clip-path="url(#clip-path)">
        <g id="Group_63" data-name="Group 63">
          <path id="Path_115" data-name="Path 115" d="M57.7,119.1l15-.1-1.2-16.6-13.9.1Z" fill="#ed9380"/>
          <path id="Path_116" data-name="Path 116" d="M35,76.6a9.4,9.4,0,0,1,3.8-6.8l1.5-15.9a23.93,23.93,0,0,1,2.9-9.5L95.4,58.8l-.1,15.7a7.569,7.569,0,0,1,1.5-.1c3.1.5,5.1,4.5,4.4,9.1s-3.7,7.9-6.8,7.5c-.4-.1-.7-.2-1.1-.3a24.293,24.293,0,0,1-25.4,17l-8.2-.8C48,105.8,41.1,96.4,40,85.1,37.9,83.7,34.5,80.3,35,76.6Z" fill="#fba67f"/>
          <path id="Path_117" data-name="Path 117" d="M69,50.3c3.9-10.9-4.9-13.2,3.1-28.6A24.11,24.11,0,0,0,49.2,36.4a25.579,25.579,0,0,1-2.4-7.7,16.658,16.658,0,0,0-9.4,9.7h0c-3.3,8.7-1.6,17.1,7.1,20.4,2.2.8,2.9-8.1,5-8.2,4.9-.2,5.2-.1,8.3-4.1,1-1.2,10.5,5.5,11.2,3.8Z" fill="#41282c"/>
          <ellipse id="Ellipse_23" data-name="Ellipse 23" cx="3.3" cy="3.9" rx="3.3" ry="3.9" transform="translate(70.167 78.033) rotate(-0.521)" fill="#2d1d1c" stroke="#000" stroke-miterlimit="10" stroke-width="0.194"/>
          <ellipse id="Ellipse_24" data-name="Ellipse 24" cx="3.3" cy="3.9" rx="3.3" ry="3.9" transform="translate(50.267 75.833) rotate(-0.521)" fill="#2d1d1c" stroke="#000" stroke-miterlimit="10" stroke-width="0.194"/>
          <path id="Path_118" data-name="Path 118" d="M39,68.7c4.8-8.3,4.8-1.8,7.1-12.5.9-3.9,15.1-4.2,34.6,1.5-.4,7.9,7,12.5,7.2,21.6a4.188,4.188,0,0,1,2.2-1.4c.3-.1,1.6-1.7,2.5-2.2a6.594,6.594,0,0,1,2.8-1.1L97,59.3S95.3,37.8,68.9,38.1C41.2,35.4,41,48.1,41,48.1A35.175,35.175,0,0,0,39,68.7Z" fill="#41282c"/>
        </g>
        <path id="Path_119" data-name="Path 119" d="M53,92.2a1.109,1.109,0,0,0-1.3,1.1c0,4.9,4,9.2,9.3,9.9s10.3-2.4,11.6-7.1a1.115,1.115,0,0,0-1-1.4Z" fill="#fff"/>
        <path id="Path_120" data-name="Path 120" d="M39.9,114.2c11.3.8,19.5,3.8,34.6,2l8.4.5v18.9H47.2Z" fill="#ed9380"/>
        <path id="Path_121" data-name="Path 121" d="M95.9,151.5H11.3l4.5-25.7A16.725,16.725,0,0,1,26.5,114a29.993,29.993,0,0,1,5.7-.5l22.2,1.4L60,131.5a2.97,2.97,0,0,0,5.2.8l11.3-16c-1.3-.2,5.7-3.6,16.8-2.9,7.1.4,29.1-.1,12.9,37.4Z" fill="#0acaff"/>
      </g>
      <g id="Group_67" data-name="Group 67" clip-path="url(#clip-path)">
        <g id="Group_66" data-name="Group 66" clip-path="url(#clip-path-3)">
          <g id="Group_65" data-name="Group 65">
            <path id="Path_123" data-name="Path 123" d="M54.6,130.4l19.9-.2-1.6-22-18.5.1Z" fill="#ed9380"/>
            <path id="Path_124" data-name="Path 124" d="M24.4,73.8c.6-4.1,2.6-7.4,5.1-9l2-21.2A31.511,31.511,0,0,1,35.4,31l69.5,19.1L104.7,71a4.517,4.517,0,0,1,2-.1c4.1.6,6.7,6,5.8,12.1s-4.9,10.6-9.1,10a8.33,8.33,0,0,1-1.5-.4,32.165,32.165,0,0,1-33.8,22.6l-10.9-1c-15.7-1.5-24.8-14-26.3-29.1C28.2,83.3,23.7,78.7,24.4,73.8Z" fill="#fba67f"/>
            <path id="Path_125" data-name="Path 125" d="M69.5,38.8C74.7,24.3,62.9,21.2,73.6.7A31.939,31.939,0,0,0,43.1,20.3a32.8,32.8,0,0,1-3.2-10.2A22.383,22.383,0,0,0,27.4,23h0C23,34.6,25.2,45.8,36.8,50.1c2.9,1.1,3.8-10.8,6.7-10.9,6.6-.2,7-.2,11.1-5.4,1.4-1.7,14.1,7.2,14.9,5Z" fill="#41282c"/>
            <ellipse id="Ellipse_25" data-name="Ellipse 25" cx="4.4" cy="5.2" rx="4.4" ry="5.2" transform="translate(71.156 75.743) rotate(-0.521)" fill="#2d1d1c" stroke="#000" stroke-miterlimit="10" stroke-width="0.259"/>
            <ellipse id="Ellipse_26" data-name="Ellipse 26" cx="4.4" cy="5.2" rx="4.4" ry="5.2" transform="translate(44.655 72.744) rotate(-0.521)" fill="#2d1d1c" stroke="#000" stroke-miterlimit="10" stroke-width="0.259"/>
            <path id="Path_126" data-name="Path 126" d="M29.6,63.3c6.4-11.1,6.3-2.4,9.5-16.6,1.1-5.2,20.1-5.6,46,1.9-.5,10.5,9.3,16.6,9.5,28.7a5.875,5.875,0,0,1,2.9-1.9c.4-.1,2.1-2.2,3.3-2.9a11.646,11.646,0,0,1,3.7-1.5l2.1-20.3s-2.3-28.6-37.5-28.2C32.2,18.9,32,35.8,32,35.8A49.338,49.338,0,0,0,29.6,63.3Z" fill="#41282c"/>
          </g>
          <path id="Path_127" data-name="Path 127" d="M48.3,94.6a1.526,1.526,0,0,0-1.7,1.5c.1,6.5,5.3,12.2,12.4,13.1s13.7-3.2,15.4-9.5a1.554,1.554,0,0,0-1.3-1.9Z" fill="#fff"/>
        </g>
      </g>
      <g id="Group_68" data-name="Group 68" clip-path="url(#clip-path)">
        <circle id="Ellipse_28" data-name="Ellipse 28" cx="17.3" cy="17.3" r="17.3" transform="translate(55.6 68.4)" fill="none" stroke="#666" stroke-miterlimit="10" stroke-width="1.604"/>
        <circle id="Ellipse_29" data-name="Ellipse 29" cx="17.3" cy="17.3" r="17.3" transform="translate(55.6 68.4)" fill="url(#radial-gradient)"/>
        <rect id="Rectangle_43" data-name="Rectangle 43" width="8.8" height="31.4" transform="translate(62.766 100.455) rotate(20.744)" fill="#666"/>
      </g>
      <g id="Group_69" data-name="Group 69" clip-path="url(#clip-path)">
        <path id="Path_130" data-name="Path 130" d="M64.2,120.2l5.1-.7c1.1-.1,2.3-1.7,2.5-3.5l-.1.4c-.1.2-.2.2-.2,0,0-1.4-.6-2.4-1.6-2.3l-4.5-.2h-.3l-4.2,1h0l-4.5.7c-.1,0-.1-.2,0-.3,0,0,4.2-5.5,2.5-8.2-.7-.9-2.2.1-3.1,1.6l-4.6,7.7h0l-.2.4-.1.2-.3.6h0l-5.4,8.8h0L33.4,141.2c-.1.1-.1.3,0,.3l11.5,3.3a.1.1,0,0,0,.1-.1l1.5-3.3.1-.1,5.5-1.3h0c2.6.4,5.5-1.1,8.1-4l.3-.4h.1l2.9-.9c.9-.3,1.7-1.7,1.8-3.1h0v-.5c0-.1,0-.2.1-.2a5.269,5.269,0,0,0,1.3-2.7,4.123,4.123,0,0,0-.2-2,.192.192,0,0,1,.1-.3h.1c1-.1,1.9-1.5,2.1-3.1v-.3c.2-1.6-.4-2.7-1.3-2.6l-3.8.5c-.1,0-.1-.1-.1-.2h0a.215.215,0,0,1,.2-.2A.4.4,0,0,0,64.2,120.2Z" fill="#fba67f"/>
      </g>
    </g>
    <path id="Path_132" data-name="Path 132" d="M140.6,38A75.2,75.2,0,1,1,109.4,8.7" fill="none" stroke="#666" stroke-miterlimit="10" stroke-width="1.443"/>
    <path id="Path_133" data-name="Path 133" d="M12.8,76.6"/>
    <path id="Path_134" data-name="Path 134" d="M123.5,66.3" fill="none" stroke="#0acaff" stroke-miterlimit="10" stroke-width="15.067"/>
    <g id="Group_72" data-name="Group 72">
      <rect id="Rectangle_44" data-name="Rectangle 44" width="41.1" height="41.1" transform="translate(109.7 0.7)" fill="none"/>
      <path id="Path_135" data-name="Path 135" d="M130.2,1.9a19.3,19.3,0,1,1-19.3,19.3" fill="none" stroke="#666" stroke-miterlimit="10" stroke-width="1.443"/>
      <g id="Group_71" data-name="Group 71">
        <path id="Path_136" data-name="Path 136" d="M123.8,2.3a7.341,7.341,0,0,0-7.3,7.3,7.655,7.655,0,0,0,1.1,3.9l-5.1,5.1,2.3,2.3,5.1-5.1a7.336,7.336,0,0,0,11.2-6.2A7.341,7.341,0,0,0,123.8,2.3Zm0,12.9a5.6,5.6,0,1,1,5.6-5.6A5.591,5.591,0,0,1,123.8,15.2Z" fill="#666"/>
      </g>
      <path id="Path_137" data-name="Path 137" d="M139.6,17.9l-1.2,13.6q-.15,1.5-1.5.9l-7.6-4.2,7.1-8.2c.3-.4-.1-.5-.6-.1l-9.1,7.4-4.4-.8c-1-.2-1-.8,0-1.4L138,16.6C139,16.3,139.8,16.7,139.6,17.9Z" fill="#666"/>
    </g>
  </g>
</svg>
