<svg xmlns="http://www.w3.org/2000/svg" xmlns:xlink="http://www.w3.org/1999/xlink" width="151.444" height="151.444" viewBox="0 0 151.444 151.444">
  <defs>
    <clipPath id="clip-path">
      <path id="Path_109" data-name="Path 109" d="M140.7,38.3a74.151,74.151,0,0,1,10,37.4,75.023,75.023,0,1,1-10-37.4"/>
    </clipPath>
    <linearGradient id="linear-gradient" x1="0.001" y1="0.499" x2="1.004" y2="0.499" gradientUnits="objectBoundingBox">
      <stop offset="0" stop-color="#b07459"/>
      <stop offset="0.039" stop-color="#bb7b5e"/>
      <stop offset="0.145" stop-color="#d28b6a"/>
      <stop offset="0.266" stop-color="#e49774"/>
      <stop offset="0.41" stop-color="#f1a07a"/>
      <stop offset="0.599" stop-color="#f9a57e"/>
      <stop offset="1" stop-color="#fba67f"/>
    </linearGradient>
    <linearGradient id="linear-gradient-2" x1="0.001" y1="0.498" x2="1.004" y2="0.498" xlink:href="#linear-gradient"/>
    <linearGradient id="linear-gradient-3" x1="0.001" y1="0.5" x2="0.998" y2="0.5" xlink:href="#linear-gradient"/>
  </defs>
  <g id="PB3" transform="translate(0.022 0.022)">
    <g id="Group_59" data-name="Group 59">
      <g id="Group_58" data-name="Group 58" clip-path="url(#clip-path)">
        <path id="Path_88" data-name="Path 88" d="M112.6,78.7c-2.2-2.2-3.7-4.2-13.4-3.8V92.4Z" fill="url(#linear-gradient)"/>
        <path id="Path_89" data-name="Path 89" d="M112.6,95.1c-2.2-2.2-3.7-4.2-13.4-3.8v17.5Z" fill="url(#linear-gradient-2)"/>
        <path id="Path_90" data-name="Path 90" d="M113.3,111.3c-2.3-2.2-4.5-3.4-14.1-3.3v17.3Z" fill="url(#linear-gradient-3)"/>
        <path id="Path_91" data-name="Path 91" d="M40.2,50v9.8c0,3.2-7.9,27.4-8.6,34.9s-.4,17.4-.4,27.2-2.8,12.4-14.6,28.4H69.7s-.3-2.5,7.6-7.9,19.6-13.2,22.4-18.1V79.2l-47.3,10s-3.2.4-2.4-6.9,4.1-28.1.5-31.7-6.5-2-7.6-2C41.9,48.6,40.2,49.1,40.2,50Z" fill="#fba67f"/>
        <circle id="Ellipse_18" data-name="Ellipse 18" cx="7.4" cy="7.4" r="7.4" transform="translate(99.8 47.9)" fill="#fba67f"/>
        <rect id="Rectangle_38" data-name="Rectangle 38" width="30.2" height="14.7" transform="matrix(0.704, -0.71, 0.71, 0.704, 80.91, 71.2)" fill="#fba67f"/>
        <path id="Path_92" data-name="Path 92" d="M93.4,132.3h-35a6.957,6.957,0,0,1-7-7V40.1a6.957,6.957,0,0,1,7-7h35a6.957,6.957,0,0,1,7,7v85.3A7,7,0,0,1,93.4,132.3Z"/>
        <path id="Path_93" data-name="Path 93" d="M95.6,121.3H56.1a2.22,2.22,0,0,1-2.2-2.2V46.4a2.22,2.22,0,0,1,2.2-2.2H95.6a2.22,2.22,0,0,1,2.2,2.2V119A2.242,2.242,0,0,1,95.6,121.3Z" fill="#fff"/>
        <path id="Path_94" data-name="Path 94" d="M78.9,40h-6a.684.684,0,0,1-.7-.7h0a.684.684,0,0,1,.7-.7h6a.684.684,0,0,1,.7.7h0A.842.842,0,0,1,78.9,40Z" fill="#e0e0ff"/>
        <ellipse id="Ellipse_19" data-name="Ellipse 19" cx="7" cy="7.3" rx="7" ry="7.3" transform="translate(97.5 111.8)" fill="#fba67f"/>
        <ellipse id="Ellipse_20" data-name="Ellipse 20" cx="7" cy="7.3" rx="7" ry="7.3" transform="translate(97.5 95.1)" fill="#fba67f"/>
        <ellipse id="Ellipse_21" data-name="Ellipse 21" cx="7" cy="7.3" rx="7" ry="7.3" transform="translate(97.3 78.7)" fill="#fba67f"/>
        <path id="Path_95" data-name="Path 95" d="M112.4,110.6c-3.6-2-6.1-.9-6.1-.9l-5.4,3.1,6.1,13a58.138,58.138,0,0,0,5.3-2.8c.7-.7,2.6-2.1,2.6-4.2C114.8,118.9,115.7,112.5,112.4,110.6Z" fill="#fba67f"/>
        <path id="Path_96" data-name="Path 96" d="M112.4,93.9c-3.6-2-6.1-.9-6.1-.9l-5.4,3.1,6.1,13a58.138,58.138,0,0,0,5.3-2.8c.7-.7,2.6-2.1,2.6-4.2C114.8,102.2,115.7,95.8,112.4,93.9Z" fill="#fba67f"/>
        <path id="Path_97" data-name="Path 97" d="M112.4,77.4c-3.6-2-6.1-.9-6.1-.9l-5.4,3.1,6.1,13a58.138,58.138,0,0,0,5.3-2.8c.7-.7,2.6-2.1,2.6-4.2C114.8,85.7,115.7,79.3,112.4,77.4Z" fill="#fba67f"/>
        <path id="Path_114" data-name="Path 114" d="M0,0H39.8V38.1H0Z" transform="translate(55.5 53.9)" fill="#ff6414"/>
        <line id="Line_3" data-name="Line 3" x2="43.9" transform="translate(53.9 51.1)" fill="none" stroke="#1478ff" stroke-miterlimit="10" stroke-width="0.802"/>
        <path id="Path_98" data-name="Path 98" d="M90.1,46H94a1.324,1.324,0,0,1,1.3,1.3v.5A1.324,1.324,0,0,1,94,49.1H90.1a1.324,1.324,0,0,1-1.3-1.3v-.5A1.4,1.4,0,0,1,90.1,46Z" fill="#1478ff"/>
        <path id="Path_99" data-name="Path 99" d="M84,46h3.1a1.11,1.11,0,0,1,1.1,1.1v.8A1.11,1.11,0,0,1,87.1,49H84a1.11,1.11,0,0,1-1.1-1.1v-.8A1.182,1.182,0,0,1,84,46Z" fill="#1478ff"/>
        <path id="Path_100" data-name="Path 100" d="M74.2,46h6.5a1.538,1.538,0,0,1,1.5,1.5h0A1.538,1.538,0,0,1,80.7,49H74.2a1.538,1.538,0,0,1-1.5-1.5h0A1.473,1.473,0,0,1,74.2,46Z" fill="#1478ff"/>
        <path id="Path_101" data-name="Path 101" d="M64.1,46h6.5a1.538,1.538,0,0,1,1.5,1.5h0A1.538,1.538,0,0,1,70.6,49H64.1a1.538,1.538,0,0,1-1.5-1.5h0A1.415,1.415,0,0,1,64.1,46Z" fill="#1478ff"/>
        <path id="Path_102" data-name="Path 102" d="M56.8,46h4a1.324,1.324,0,0,1,1.3,1.3v.5a1.324,1.324,0,0,1-1.3,1.3h-4a1.324,1.324,0,0,1-1.3-1.3v-.5A1.324,1.324,0,0,1,56.8,46Z" fill="#1478ff"/>
        <rect id="Rectangle_40" data-name="Rectangle 40" width="39.8" height="12.6" transform="translate(55.5 92)" fill="#e0e0ff"/>
        <rect id="Rectangle_41" data-name="Rectangle 41" width="39.8" height="14.2" transform="translate(55.5 107.1)" fill="#1478ff"/>
        <path id="Path_103" data-name="Path 103" d="M75.7,81.9l2,1.6,2.1-1.4-.9,2.4,2,1.6L78.4,86l-1,2.3-.6-2.4-2.6-.2,2.2-1.4Z" fill="#e0e0ff"/>
        <path id="Path_104" data-name="Path 104" d="M85.4,75.9l2.1-1.4-.6-2.4,1.9,1.6L91,72.3l-.9,2.4L92,76.3l-2.5-.2-.9,2.4L87.9,76Z" fill="#e0e0ff"/>
        <path id="Path_105" data-name="Path 105" d="M82.7,64.9,82,62.4l-2.5-.1,2.1-1.4-.7-2.5,2,1.6,2.2-1.3-1,2.3,2,1.6-2.5-.1Z" fill="#e0e0ff"/>
        <path id="Path_106" data-name="Path 106" d="M71.3,64l-2.5-.1-.9,2.4-.7-2.5-2.5-.1,2.1-1.4-.6-2.5,1.9,1.7,2.2-1.4-.9,2.3Z" fill="#e0e0ff"/>
        <path id="Path_107" data-name="Path 107" d="M67,74.6l-.9,2.3,2,1.6-2.5-.1-1,2.4L64,78.3l-2.5-.1,2.1-1.4-.7-2.5,2,1.6Z" fill="#e0e0ff"/>
        <g id="Group_57" data-name="Group 57">
          <path id="Path_108" data-name="Path 108" d="M74.7,68.2h.1A13.02,13.02,0,0,0,76.3,70l-.5.5a16.475,16.475,0,0,1,1.4,5.6,4.005,4.005,0,0,1-.8,1.8l-.2-.1a1.949,1.949,0,0,0,.1-.8c0-2.1-1.2-5.4-2.4-7.7A4.44,4.44,0,0,1,74.7,68.2Z" fill="#fff"/>
        </g>
      </g>
    </g>
    <g id="Group_60" data-name="Group 60">
      <path id="Path_110" data-name="Path 110" d="M123.4,66.3" fill="none" stroke="#0acaff" stroke-miterlimit="10" stroke-width="15.073"/>
      <path id="Path_111" data-name="Path 111" d="M140.7,38.3a74.151,74.151,0,0,1,10,37.4,75.023,75.023,0,1,1-10-37.4" fill="none" stroke="#666" stroke-miterlimit="10" stroke-width="1.444"/>
      <circle id="Ellipse_22" data-name="Ellipse 22" cx="20" cy="20" r="20" transform="translate(110.2 1.2)" fill="#fff"/>
    </g>
    <g id="Group_61" data-name="Group 61">
      <rect id="Rectangle_42" data-name="Rectangle 42" width="41.1" height="41.1" transform="translate(109.6 0.7)" fill="none"/>
      <path id="Path_112" data-name="Path 112" d="M142.5,6.3a19.309,19.309,0,1,1-31.6,14.9A19.376,19.376,0,0,1,130.2,1.9" fill="none" stroke="#666" stroke-miterlimit="10" stroke-width="1.444"/>
      <path id="Path_113" data-name="Path 113" d="M135.5,6.3a14.757,14.757,0,0,0-10,13.5,12.726,12.726,0,0,1-3-3.9,10.492,10.492,0,0,0-3.3,7.6h0a10.409,10.409,0,0,0,7.7,10,6.551,6.551,0,0,1-2.1-4.9h0a6.715,6.715,0,0,1,2.1-4.9,9.579,9.579,0,0,0,2,2.5,9.607,9.607,0,0,1,6.4-8.7c-.8,6.8,2.8,6.5,2.8,11.1h0v.8a10.127,10.127,0,0,0,1.9-5.9h0C139.8,16.4,134.2,17,135.5,6.3Z" fill="#666"/>
    </g>
  </g>
</svg>
