<svg xmlns="http://www.w3.org/2000/svg" xmlns:xlink="http://www.w3.org/1999/xlink" width="151.444" height="158.218" viewBox="0 0 151.444 158.218">
  <defs>
    <clipPath id="clip-path">
      <path id="Path_4831" data-name="Path 4831" d="M150.7,82.5a75,75,0,1,1-75-75c9.4,0,27.6-10,35.9-6.9C139.8,11.4,150.7,50.5,150.7,82.5Z"/>
    </clipPath>
    <clipPath id="clip-path-2">
      <rect id="Rectangle_70" data-name="Rectangle 70" width="57.2" height="18.9"/>
    </clipPath>
    <clipPath id="clip-path-3">
      <rect id="Rectangle_71" data-name="Rectangle 71" width="57.2" height="18.9" transform="translate(62 65)"/>
    </clipPath>
    <clipPath id="clip-path-4">
      <path id="Path_4830" data-name="Path 4830" d="M119.1,54.4c-.2-19.6-15.7-18-12.1-47.3,0,0-25.8,7.4-27.6,37A41.413,41.413,0,0,1,71,33.4a28.623,28.623,0,0,0-9.2,20.9h0A28.765,28.765,0,0,0,90.5,83a29.3,29.3,0,0,0,11.1-2.2,28.7,28.7,0,0,0,17.5-26.4Z" opacity="0.21"/>
    </clipPath>
  </defs>
  <g id="PB9" transform="translate(0.022 -0.004)">
    <g id="Group_936" data-name="Group 936">
      <g id="Group_935" data-name="Group 935" clip-path="url(#clip-path)">
        <path id="Path_4816" data-name="Path 4816" d="M57.1,78.9h66.2a1.99,1.99,0,0,1,1.6.7l.7.7a2.36,2.36,0,0,1,.7,1.6v10a2.249,2.249,0,0,1-1.9,2.2L91.9,95.4c-1.1.2-.8,5-.8,6.1V109" fill="none" stroke="#000" stroke-linecap="round" stroke-miterlimit="10" stroke-width="2.031" opacity="0.1"/>
        <path id="Path_4817" data-name="Path 4817" d="M119.2,67.2H62a3.329,3.329,0,0,0-3.3,3.3V82.9A3.329,3.329,0,0,0,62,86.2h6.1a2.591,2.591,0,0,0,2.4,1.7h2.2a2.494,2.494,0,0,0,2.4-1.7H112a2.628,2.628,0,0,0,2.6,2.5h2.3a2.628,2.628,0,0,0,2.6-2.5,3.233,3.233,0,0,0,2.8-3.2V70.5A3.044,3.044,0,0,0,119.2,67.2Z" opacity="0.1"/>
        <g id="Group_929" data-name="Group 929">
          <path id="Path_4818" data-name="Path 4818" d="M119.1,54.4c-.2-19.6-15.7-18-12.1-47.3,0,0-25.8,7.4-27.6,37A41.413,41.413,0,0,1,71,33.4a28.623,28.623,0,0,0-9.2,20.9h0A28.765,28.765,0,0,0,90.5,83a29.3,29.3,0,0,0,11.1-2.2,28.7,28.7,0,0,0,17.5-26.4Z" fill="#0acaff"/>
          <g id="Group_928" data-name="Group 928">
            <path id="Path_4819" data-name="Path 4819" d="M86.2,63.4,99.6,71c1.5.6,2.5.1,2.6-1.6l2.1-24.2c.3-2.1-1.2-2.9-2.4-2.1l-28,15c-1.9,1.1-1.8,2.2-.1,2.5L81.6,62,97.7,48.8c.8-.6,1.6-.4,1,.2Z" fill="#fff"/>
          </g>
        </g>
        <path id="Path_4820" data-name="Path 4820" d="M57.1,74.4h66.2a1.99,1.99,0,0,1,1.6.7l.7.7a2.36,2.36,0,0,1,.7,1.6v10a2.249,2.249,0,0,1-1.9,2.2L93,94.8A2.249,2.249,0,0,0,91.1,97v7.5" fill="none" stroke="#666" stroke-linecap="round" stroke-miterlimit="10" stroke-width="2.031"/>
        <path id="Path_4821" data-name="Path 4821" d="M62,83.9h0a3.329,3.329,0,0,1-3.3-3.3V68.2A3.329,3.329,0,0,1,62,64.9h0Z" fill="#efbf75"/>
        <path id="Path_4822" data-name="Path 4822" d="M119.2,83.9h0V65h0a3.329,3.329,0,0,1,3.3,3.3V80.7A3.244,3.244,0,0,1,119.2,83.9Z" fill="#efbf75"/>
        <g id="Group_932" data-name="Group 932">
          <g id="Group_930" data-name="Group 930" transform="translate(62 65)" clip-path="url(#clip-path-2)">
            <rect id="Rectangle_69" data-name="Rectangle 69" width="57.2" height="18.9" fill="#1e4f84"/>
          </g>
          <g id="Group_931" data-name="Group 931" clip-path="url(#clip-path-3)">
            <path id="Path_4823" data-name="Path 4823" d="M119.6,65.5V83.7a2.669,2.669,0,0,1-2.6,2.7h-2.3a2.606,2.606,0,0,1-2.6-2.7V73.6a2.669,2.669,0,0,0-2.6-2.7h-8.8a2.606,2.606,0,0,0-2.6,2.7v7.5a2.669,2.669,0,0,1-2.6,2.7h0a2.606,2.606,0,0,1-2.6-2.7V74.5a2.669,2.669,0,0,0-2.6-2.7h0a2.606,2.606,0,0,0-2.6,2.7v2.4a2.669,2.669,0,0,1-2.6,2.7h-.6a2.606,2.606,0,0,1-2.6-2.7V72.6a2.669,2.669,0,0,0-2.6-2.7H78a2.606,2.606,0,0,0-2.6,2.7V82.8a2.669,2.669,0,0,1-2.6,2.7H70.6A2.606,2.606,0,0,1,68,82.8V78a2.669,2.669,0,0,0-2.6-2.7h-.1a2.606,2.606,0,0,1-2.6-2.7V65.3h56.9Z" opacity="0.14"/>
          </g>
        </g>
        <path id="Path_4824" data-name="Path 4824" d="M119.2,64.7V83a2.669,2.669,0,0,1-2.6,2.7h-2.3a2.606,2.606,0,0,1-2.6-2.7V72.9a2.669,2.669,0,0,0-2.6-2.7h-8.8a2.606,2.606,0,0,0-2.6,2.7v7.5a2.669,2.669,0,0,1-2.6,2.7h0a2.606,2.606,0,0,1-2.6-2.7V73.8a2.669,2.669,0,0,0-2.6-2.7h0a2.606,2.606,0,0,0-2.6,2.7v2.4a2.669,2.669,0,0,1-2.6,2.7h-.6a2.606,2.606,0,0,1-2.6-2.7V72a2.669,2.669,0,0,0-2.6-2.7h-.8A2.606,2.606,0,0,0,75.5,72V82.2a2.669,2.669,0,0,1-2.6,2.7H70.7a2.606,2.606,0,0,1-2.6-2.7V77.4a2.669,2.669,0,0,0-2.6-2.7h-.1A2.606,2.606,0,0,1,62.8,72V64.7Z" fill="#0acaff"/>
        <path id="Path_4825" data-name="Path 4825" d="M114.4,68H65.3a1.11,1.11,0,0,1-1.1-1.1h0a1.11,1.11,0,0,1,1.1-1.1h49.1a1.11,1.11,0,0,1,1.1,1.1h0A1.11,1.11,0,0,1,114.4,68Z" fill="#fff" opacity="0.63"/>
        <path id="Path_4826" data-name="Path 4826" d="M92.7,140.6H89.2a3.329,3.329,0,0,1-3.3-3.3V106.5a3.329,3.329,0,0,1,3.3-3.3h3.5a3.329,3.329,0,0,1,3.3,3.3v30.8A3.2,3.2,0,0,1,92.7,140.6Z" fill="#4a2b0f"/>
        <path id="Path_4827" data-name="Path 4827" d="M91.3,140.6H89a3.009,3.009,0,0,1-3-3V106.2a3.009,3.009,0,0,1,3-3h2.3a3.009,3.009,0,0,1,3,3v31.4A3.009,3.009,0,0,1,91.3,140.6Z" fill="#754c24"/>
        <path id="Path_4828" data-name="Path 4828" d="M66.8,164.4S80,136.2,83,135.1c5.7.2,8.3.6,12.2-1.6,3.8-2.2,5.9-3.8,5.9-5.3a1.423,1.423,0,0,0-1.2-1.6l-.1-.8c.9,0,1.6-.9,1.6-2.5a2.223,2.223,0,0,0-2.5-2.5v-.4c2,0,2.4-2.5,1.9-3.7a2.148,2.148,0,0,0-2.6-1.6l-.1-.4a2.884,2.884,0,0,0,1.7-4.3c-.8-1.5-1.7-2.5-3.7-1.8-2.1.7-6.2,4.2-10.2,4.8v-3.1s-3.3,0-5.2,1.5-3.3,2.6-3.3,2.6a13.465,13.465,0,0,0-2.8,3.9c-1.3,2.6-4.4,9.6-7.1,13.7-2.8,4-20.1,31.7-20.8,32.4C49.9,164.2,66.8,164.4,66.8,164.4Z" fill="#fba67f"/>
        <g id="Group_934" data-name="Group 934" opacity="0.21">
          <g id="Group_933" data-name="Group 933" clip-path="url(#clip-path-4)">
            <path id="Path_4829" data-name="Path 4829" d="M64.5,54.4h1.7a2.476,2.476,0,0,0,2.5-2.5V44.4a2.476,2.476,0,0,1,2.5-2.5h.2a2.476,2.476,0,0,1,2.5,2.5v1.3a2.476,2.476,0,0,0,2.5,2.5h.9a2.476,2.476,0,0,0,2.5-2.5V36a2.476,2.476,0,0,1,2.5-2.5h.8A2.476,2.476,0,0,1,85.6,36v3.2a2.476,2.476,0,0,0,2.5,2.5h0a2.476,2.476,0,0,0,2.5-2.5V30.6a2.476,2.476,0,0,1,2.5-2.5h6a2.476,2.476,0,0,1,2.5,2.5v7.1a2.476,2.476,0,0,0,2.5,2.5h2.3a2.476,2.476,0,0,0,2.5-2.5V30.3a2.476,2.476,0,0,1,2.5-2.5h2a2.476,2.476,0,0,0,2.5-2.5V4.1a2.476,2.476,0,0,0-2.5-2.5H64.6a2.476,2.476,0,0,0-2.5,2.5L62,51.8A2.562,2.562,0,0,0,64.5,54.4Z" fill="#0792b8"/>
          </g>
        </g>
      </g>
    </g>
    <path id="Path_4832" data-name="Path 4832" d="M115.9,19.2A74.98,74.98,0,1,1,75.7,7.5a72.035,72.035,0,0,1,8.1.4" fill="none" stroke="#666" stroke-miterlimit="10" stroke-width="1.444"/>
  </g>
</svg>
