<svg xmlns="http://www.w3.org/2000/svg" width="151.444" height="151.444" viewBox="0 0 151.444 151.444">
  <g id="PB4" transform="translate(0.022 0.022)">
    <g id="Group_99" data-name="Group 99">
      <g id="Group_98" data-name="Group 98">
        <path id="Path_174" data-name="Path 174" d="M104.6,36.5c-.5.7-1,1.4-1.6,2.1" fill="none" stroke="#ff6414" stroke-miterlimit="10" stroke-width="1.524"/>
        <path id="Path_175" data-name="Path 175" d="M99.3,43.5c-9.6,12.4-23.8,30.3-27,38.4-3.6,8.9-23.9,35.3-43.8,43.6" fill="none" stroke="#ff6414" stroke-miterlimit="10" stroke-width="1.524" stroke-dasharray="5.215 6.071"/>
        <path id="Path_176" data-name="Path 176" d="M25.6,126.5a25.042,25.042,0,0,1-2.6.7" fill="none" stroke="#ff6414" stroke-miterlimit="10" stroke-width="1.524"/>
      </g>
    </g>
    <g id="Group_100" data-name="Group 100">
      <path id="Path_177" data-name="Path 177" d="M100.9,41.7c-1.3,0-1.1-.5-1.6-1.8L95.4,27.1,125.3,9.3" fill="#0acaff"/>
      <path id="Path_178" data-name="Path 178" d="M100.9,41.7a2.6,2.6,0,0,0,2-1l5.4-5.3-6.8-4.1" fill="#1e4f84"/>
      <path id="Path_179" data-name="Path 179" d="M101.6,31.3,118,43.5c1.9,1,3.2.5,3.7-1.7l6.7-31.6c.7-2.7-1-4-2.8-3.2L86.3,22.2c-2.7,1.1-2.7,2.6-.5,3.2l10.1,3.1,23.4-14.7c1.1-.7,2.1-.3,1.3.4" fill="#1478ff"/>
    </g>
    <g id="Group_103" data-name="Group 103">
      <g id="Group_102" data-name="Group 102">
        <path id="Path_180" data-name="Path 180" d="M123.4,66.3" fill="none" stroke="#0acaff" stroke-miterlimit="10" stroke-width="15.073"/>
        <path id="Path_181" data-name="Path 181" d="M131.3,25.4a74.732,74.732,0,0,1,9.4,12.9" fill="none" stroke="#666" stroke-miterlimit="10" stroke-width="1.444"/>
        <path id="Path_182" data-name="Path 182" d="M140.7,38.3a74.151,74.151,0,0,1,10,37.4,75,75,0,1,1-75-75,74.211,74.211,0,0,1,30.9,6.7" fill="none" stroke="#666" stroke-miterlimit="10" stroke-width="1.444"/>
      </g>
    </g>
    <path id="Path_183" data-name="Path 183" d="M138.4,85.4l-19.1,14c-1.4,1-2.4.6-2.9-.9l-3.1-14.7,18.7-.1c.8,0,.4-.7-.5-.9l-20-3.4-4-6.7c-.9-1.4-.1-2.3,1.9-1.5l28.9,10.9C139.8,82.7,140.2,84.2,138.4,85.4Z" fill="#1e4f84"/>
    <path id="Path_184" data-name="Path 184" d="M36,23.3,55.4,36.9c1.4,1,1.4,2,.1,3L42.6,47.5,36.5,29.8c-.3-.8-.8-.2-.7.7l3.2,20-5,5.9c-1.1,1.3-2.1.9-2-1.3l1-30.8C33,22.8,34.4,22,36,23.3Z" fill="#1478ff"/>
    <g id="Group_105" data-name="Group 105">
      <g id="Group_104" data-name="Group 104">
        <path id="Path_185" data-name="Path 185" d="M44.3,50.6c.7.5,1.5,1,2.2,1.5" fill="none" stroke="#ff6414" stroke-miterlimit="10" stroke-width="1.524"/>
        <path id="Path_186" data-name="Path 186" d="M51.9,55.4c5.8,3.1,11.9,5.5,17.9,8.1,8.7,3.9,17.5,8.7,23.1,16.4,5.7,7.7,7.4,19,1.9,26.8-4,5.6-10.9,8.4-17.7,9.5-6.8,1-13.7.6-20.6,1a73.325,73.325,0,0,0-29.6,8.6" fill="none" stroke="#ff6414" stroke-miterlimit="10" stroke-width="1.524" stroke-dasharray="5.419 6.309"/>
        <path id="Path_187" data-name="Path 187" d="M24.1,127.4c-.8.5-1.5.9-2.3,1.4" fill="none" stroke="#ff6414" stroke-miterlimit="10" stroke-width="1.524"/>
      </g>
    </g>
    <g id="Group_107" data-name="Group 107">
      <g id="Group_106" data-name="Group 106">
        <path id="Path_188" data-name="Path 188" d="M110.6,83.7a24.369,24.369,0,0,0-2.7-.1" fill="none" stroke="#ff6414" stroke-miterlimit="10" stroke-width="1.524"/>
        <path id="Path_189" data-name="Path 189" d="M101.8,84.7a34.47,34.47,0,0,0-13.2,8.5c-5.9,5.8-10.2,13-15.7,19.2S60.4,124,52.2,124.7c-5,.4-10-.9-15-1.4a23.16,23.16,0,0,0-9.1.8" fill="none" stroke="#ff6414" stroke-miterlimit="10" stroke-width="1.524" stroke-dasharray="5.359 6.239"/>
        <path id="Path_190" data-name="Path 190" d="M25.3,125.5a15.664,15.664,0,0,0-2.1,1.7" fill="none" stroke="#ff6414" stroke-miterlimit="10" stroke-width="1.524"/>
      </g>
    </g>
  </g>
</svg>
