<svg xmlns="http://www.w3.org/2000/svg" xmlns:xlink="http://www.w3.org/1999/xlink" width="151.444" height="151.444" viewBox="0 0 151.444 151.444">
  <defs>
    <clipPath id="clip-path">
      <circle id="Ellipse_202" data-name="Ellipse 202" cx="75" cy="75" r="75" transform="translate(0.7 0.7)"/>
    </clipPath>
  </defs>
  <g id="PB6" transform="translate(0.022 0.022)">
    <g id="Group_2762" data-name="Group 2762">
      <g id="Group_2761" data-name="Group 2761" clip-path="url(#clip-path)">
        <ellipse id="Ellipse_200" data-name="Ellipse 200" cx="52.9" cy="8.7" rx="52.9" ry="8.7" transform="translate(22.8 126.4)" fill="#d8d8d8"/>
        <path id="Path_14354" data-name="Path 14354" d="M117.2,36.4,102.7,21,98.9,138l13.7-7.9Z" fill="#1e4f84" stroke="red" stroke-miterlimit="10" stroke-width="0.08"/>
        <path id="Path_14355" data-name="Path 14355" d="M98.9,138l-59.6-1.8L33.8,27.6,102.7,21Z" fill="#1478ff"/>
        <path id="Path_14356" data-name="Path 14356" d="M89.9,128.7l-43.2-1.5-4-91.3,50-5.6Z" fill="#11304f"/>
        <g id="Group_2755" data-name="Group 2755">
          <path id="Path_14357" data-name="Path 14357" d="M82.9,37.9a7.2,7.2,0,1,0,7.2,7.2A7.17,7.17,0,0,0,82.9,37.9Zm0,3.9a1.4,1.4,0,1,1-1.4,1.4A1.43,1.43,0,0,1,82.9,41.8Zm3.4,6.6H79.7V47.2c0-1.1,2.2-1.7,3.3-1.7s3.3.6,3.3,1.7v1.2Z" fill="#c3c3c3"/>
        </g>
        <path id="Path_14358" data-name="Path 14358" d="M84,74.9h-.7V73.4H81.8v1.5H76V73.4H74.5v1.5h-.7a1.538,1.538,0,0,0-1.5,1.5V86.6a1.473,1.473,0,0,0,1.5,1.5H84a1.538,1.538,0,0,0,1.5-1.5V76.4A1.612,1.612,0,0,0,84,74.9Zm-5.1,2.2a2.2,2.2,0,1,1-2.2,2.2A2.22,2.22,0,0,1,78.9,77.1Zm4.4,8.7H74.6v-.7c0-1.5,2.9-2.3,4.4-2.3s4.4.8,4.4,2.3v.7Z" fill="#ff6414"/>
        <path id="Path_14359" data-name="Path 14359" d="M87.7,114.8l-5.9,7.5q-.6.75-1.2,0l-2.8-5.4,7.3-2.1c.3-.1.1-.3-.3-.3l-8.1.9-2.3-2.2c-.5-.5-.3-.9.6-.8l12.4,1.1C88,113.6,88.3,114.2,87.7,114.8Z" fill="#0acaff"/>
        <path id="Path_14360" data-name="Path 14360" d="M40.3,36.7,71.4,18.8V131.7l-28.1-5.1Z" fill="#0acaff" stroke="#000" stroke-miterlimit="10" stroke-width="0.08"/>
        <path id="Path_14361" data-name="Path 14361" d="M77.6,130.1l-6.2,1.6V18.8l6.2,1.6Z" fill="#1e4f84"/>
        <rect id="Rectangle_173" data-name="Rectangle 173" width="13.3" height="4.3" transform="translate(77.6 88.1)" fill="#16509e"/>
        <path id="Path_14362" data-name="Path 14362" d="M77.6,52.3H92.1L92,56.6H77.6Z" fill="#16509e"/>
        <ellipse id="Ellipse_201" data-name="Ellipse 201" cx="1.4" cy="1.9" rx="1.4" ry="1.9" transform="translate(52.9 36.4)" fill="#ff6414" stroke="#000" stroke-miterlimit="10" stroke-width="0.069"/>
        <g id="Group_2757" data-name="Group 2757">
          <path id="Path_14363" data-name="Path 14363" d="M57.4,54.9c0-4.1-1.9-3.8-1.5-10,0,0-3.2,1.6-3.4,7.8a6.953,6.953,0,0,1-1-2.3,8.432,8.432,0,0,0-1.1,4.4h0c0,3.3,1.6,6,3.5,6a2.654,2.654,0,0,0,1.4-.5c1.2-.7,2.1-2.9,2.1-5.4Z" fill="#fff"/>
          <g id="Group_2756" data-name="Group 2756">
            <path id="Path_14364" data-name="Path 14364" d="M53.3,56.8l1.6,1.6q.3.15.3-.3l.3-5.1c0-.4-.1-.6-.3-.4l-3.4,3.2c-.2.2-.2.5,0,.5l1,.3,2-2.8c.1-.1.2-.1.1,0Z" fill="#0acaff"/>
          </g>
        </g>
        <g id="Group_2758" data-name="Group 2758">
          <path id="Path_14365" data-name="Path 14365" d="M62.6,93.7a2.181,2.181,0,0,1-.4.5,7.2,7.2,0,0,1-6.2,3,8.893,8.893,0,0,1-6.3-4c-.1-.2-.3-.4-.4-.6a16.948,16.948,0,0,1-2.6-9A14.951,14.951,0,0,1,49,75a2.181,2.181,0,0,1,.4-.5,7.2,7.2,0,0,1,6.2-3,8.893,8.893,0,0,1,6.3,4c.1.2.3.4.4.6a16.948,16.948,0,0,1,2.6,9A14.951,14.951,0,0,1,62.6,93.7ZM49.7,75.2c1.8,2.6,3.5,5.1,5.2,7.6a1.222,1.222,0,0,1,.9-.4c.3,0,.5.2.9.5,1.7-2.3,3.3-4.5,5-6.8-1.8-2.4-3.9-3.7-6.1-3.9s-4.2.8-5.9,3m.1,17.1c1.7-2.3,3.3-4.5,5-6.8a3.452,3.452,0,0,1-.3-1.3,2.663,2.663,0,0,1,.3-1.2c-1.8-2.6-3.4-5-5.2-7.6a14.4,14.4,0,0,0-2.3,8.3,15.421,15.421,0,0,0,2.5,8.6M62,93.6c-1.8-2.6-3.5-5.1-5.2-7.6a1.222,1.222,0,0,1-.9.4c-.3,0-.5-.2-.9-.5-1.7,2.3-3.3,4.5-5,6.8,1.8,2.4,3.9,3.7,6.1,3.9a7.186,7.186,0,0,0,5.9-3m.1-.3A14.4,14.4,0,0,0,64.4,85a16.711,16.711,0,0,0-2.6-8.7c-1.7,2.3-3.3,4.5-5,6.8a3.452,3.452,0,0,1,.3,1.3,2.663,2.663,0,0,1-.3,1.2c1.9,2.7,3.5,5.1,5.3,7.7" fill="#666"/>
        </g>
        <g id="Group_2759" data-name="Group 2759">
          <path id="Path_14366" data-name="Path 14366" d="M62.3,93.7a2.181,2.181,0,0,1-.4.5,7.2,7.2,0,0,1-6.2,3,8.893,8.893,0,0,1-6.3-4c-.1-.2-.3-.4-.4-.6a16.948,16.948,0,0,1-2.6-9A14.951,14.951,0,0,1,48.7,75a2.181,2.181,0,0,1,.4-.5,7.2,7.2,0,0,1,6.2-3,8.893,8.893,0,0,1,6.3,4c.1.2.3.4.4.6a16.948,16.948,0,0,1,2.6,9A14.229,14.229,0,0,1,62.3,93.7ZM49.4,75.2c1.8,2.6,3.5,5.1,5.2,7.6a1.222,1.222,0,0,1,.9-.4c.3,0,.5.2.9.5,1.7-2.3,3.3-4.5,5-6.8-1.8-2.4-3.9-3.7-6.1-3.9-2.1-.2-4.2.8-5.9,3m.2,17.1c1.7-2.3,3.3-4.5,5-6.8a3.452,3.452,0,0,1-.3-1.3,2.663,2.663,0,0,1,.3-1.2c-1.8-2.6-3.4-5-5.2-7.6a14.4,14.4,0,0,0-2.3,8.3,14.663,14.663,0,0,0,2.5,8.6m12.1,1.3c-1.8-2.6-3.5-5.1-5.2-7.6a1.222,1.222,0,0,1-.9.4c-.3,0-.5-.2-.9-.5-1.7,2.3-3.3,4.5-5,6.8,1.8,2.4,3.9,3.7,6.1,3.9a7.062,7.062,0,0,0,5.9-3m.2-.3A14.4,14.4,0,0,0,64.2,85a16.711,16.711,0,0,0-2.6-8.7c-1.7,2.3-3.3,4.5-5,6.8a3.452,3.452,0,0,1,.3,1.3,2.663,2.663,0,0,1-.3,1.2c1.8,2.7,3.5,5.1,5.3,7.7" fill="#c98e16"/>
        </g>
        <g id="Group_2760" data-name="Group 2760">
          <path id="Path_14367" data-name="Path 14367" d="M62.1,93.7a2.181,2.181,0,0,1-.4.5,7.2,7.2,0,0,1-6.2,3,8.893,8.893,0,0,1-6.3-4c-.1-.2-.3-.4-.4-.6a16.948,16.948,0,0,1-2.6-9A14.951,14.951,0,0,1,48.5,75a2.181,2.181,0,0,1,.4-.5,7.2,7.2,0,0,1,6.2-3,8.893,8.893,0,0,1,6.3,4c.1.2.3.4.4.6a16.948,16.948,0,0,1,2.6,9A14.951,14.951,0,0,1,62.1,93.7ZM49.2,75.1c1.8,2.6,3.5,5.1,5.2,7.6a1.222,1.222,0,0,1,.9-.4c.3,0,.5.2.9.5,1.7-2.3,3.3-4.5,5-6.8-1.8-2.4-3.9-3.7-6.1-3.9a6.943,6.943,0,0,0-5.9,3m.1,17.2c1.7-2.3,3.3-4.5,5-6.8a3.452,3.452,0,0,1-.3-1.3,2.663,2.663,0,0,1,.3-1.2c-1.8-2.6-3.4-5-5.2-7.6a14.4,14.4,0,0,0-2.3,8.3,15.656,15.656,0,0,0,2.5,8.6m12.1,1.2c-1.8-2.6-3.5-5.1-5.2-7.6a1.222,1.222,0,0,1-.9.4c-.3,0-.5-.2-.9-.5-1.7,2.3-3.3,4.5-5,6.8,1.8,2.4,3.9,3.7,6.1,3.9a6.488,6.488,0,0,0,5.9-3m.2-.2A14.4,14.4,0,0,0,63.9,85a16.711,16.711,0,0,0-2.6-8.7c-1.7,2.3-3.3,4.5-5,6.8a3.452,3.452,0,0,1,.3,1.3,2.663,2.663,0,0,1-.3,1.2c1.8,2.6,3.5,5.1,5.3,7.7" fill="#ffb305"/>
        </g>
      </g>
    </g>
    <circle id="Ellipse_203" data-name="Ellipse 203" cx="75" cy="75" r="75" transform="translate(0.7 0.7)" fill="none" stroke="#666" stroke-miterlimit="10" stroke-width="1.444"/>
  </g>
</svg>
