<svg xmlns="http://www.w3.org/2000/svg" xmlns:xlink="http://www.w3.org/1999/xlink" width="151.444" height="152.293" viewBox="0 0 151.444 152.293">
  <defs>
    <clipPath id="clip-path">
      <path id="Path_4937" data-name="Path 4937" d="M115.5,16.8A74.961,74.961,0,1,1,75.8,5.4c1.1,0,2.1,0,3.2.1"/>
    </clipPath>
    <clipPath id="clip-path-2">
      <path id="Path_4940" data-name="Path 4940" d="M112.6,39.6a7.454,7.454,0,0,0-3.3-5.1l-1.9-12.4a18.376,18.376,0,0,0-2.7-7.3L64.4,28.4l.8,12.3a2.438,2.438,0,0,0-1.2,0c-2.4.5-3.8,3.8-3,7.3.7,3.6,3.3,6,5.7,5.6a6.89,6.89,0,0,0,.8-.3A19.014,19.014,0,0,0,88.2,65.5l6.4-1a19,19,0,0,0,16.2-18.1C112.4,45.3,113.2,42.6,112.6,39.6Z"/>
    </clipPath>
  </defs>
  <g id="PB7" transform="translate(-0.078 -3.829)">
    <g id="Group_1006" data-name="Group 1006">
      <g id="Group_1005" data-name="Group 1005" clip-path="url(#clip-path)">
        <g id="Group_1000" data-name="Group 1000">
          <rect id="Rectangle_97" data-name="Rectangle 97" width="28.1" height="62.7" transform="translate(67.15 135.387) rotate(7.735)" fill="#0acaff"/>
          <path id="Path_4925" data-name="Path 4925" d="M118.8,205.7l-24.4-4-6.9-60.1,23.6-2.8Z" fill="#0acaff"/>
          <g id="Group_997" data-name="Group 997">
            <rect id="Rectangle_98" data-name="Rectangle 98" width="10.9" height="13" transform="matrix(0.999, -0.048, 0.048, 0.999, 85.192, 61.567)" fill="#ed9380"/>
            <path id="Path_4926" data-name="Path 4926" d="M63.6,73.6l1.7,70.8a4.32,4.32,0,0,0,4.2,3.9,140.969,140.969,0,0,0,20.8-.6c7.7-1.2,13.7-5.2,17.2-6.5,2.2-.8,4-.5,4.4-2.8l5.2-68.3a50.247,50.247,0,0,0-25.5,2.6C75.5,67.5,63.6,73.6,63.6,73.6Z" fill="#ed9380"/>
          </g>
          <g id="Group_999" data-name="Group 999">
            <g id="Group_998" data-name="Group 998">
              <rect id="Rectangle_99" data-name="Rectangle 99" width="10.9" height="13" transform="matrix(0.999, -0.048, 0.048, 0.999, 85.192, 63.367)" fill="#ed9380"/>
              <path id="Path_4927" data-name="Path 4927" d="M112.6,41.4a7.454,7.454,0,0,0-3.3-5.1l-1.9-12.4a18.376,18.376,0,0,0-2.7-7.3L64.4,30.2l.8,12.3a2.438,2.438,0,0,0-1.2,0c-2.4.5-3.8,3.8-3,7.3.7,3.6,3.3,6,5.7,5.6a6.89,6.89,0,0,0,.8-.3A19.014,19.014,0,0,0,88.2,67.3l6.4-1a19,19,0,0,0,16.2-18.1C112.4,47.1,113.2,44.3,112.6,41.4Z" fill="#fba67f"/>
              <path id="Path_4928" data-name="Path 4928" d="M84.8,22.4C81.2,14,88.1,11.8,81.1.1A18.829,18.829,0,0,1,99.7,10.6a18.216,18.216,0,0,0,1.5-6.1,12.875,12.875,0,0,1,7.8,7.2h0c3,6.7,2,13.3-4.6,16.3-1.7.7-2.6-6.2-4.3-6.2-3.9.1-4.1.1-6.7-2.8-.9-1-8,4.6-8.6,3.4Z" fill="#41282c"/>
              <ellipse id="Ellipse_106" data-name="Ellipse 106" cx="2.6" cy="3.1" rx="2.6" ry="3.1" transform="matrix(0.999, -0.048, 0.048, 0.999, 74.851, 42.227)" fill="#2d1d1c" stroke="#000" stroke-miterlimit="10" stroke-width="0.153"/>
              <ellipse id="Ellipse_107" data-name="Ellipse 107" cx="2.6" cy="3.1" rx="2.6" ry="3.1" transform="matrix(0.999, -0.048, 0.048, 0.999, 96.05, 39.228)" fill="#2d1d1c" stroke="#000" stroke-miterlimit="10" stroke-width="0.153"/>
              <path id="Path_4929" data-name="Path 4929" d="M98.4,49.2a1.109,1.109,0,0,1,1.3,1.1c0,4.9-4,9.2-9.4,9.9a10.178,10.178,0,0,1-11.5-7,1.079,1.079,0,0,1,1-1.4Z" fill="#fff"/>
              <path id="Path_4930" data-name="Path 4930" d="M109.2,35.4c-4.1-6.3-4.6-1.2-7-9.4-.8-3-15.3-2.5-30.3,2.9.7,6.2-5.1,7.4-4.8,14.6-.1-2.5-1.8-.9-1.8-.9L63.4,30.7s.4-16.9,21.1-17.9c21.6-3.3,22.3,6.6,22.3,6.6A28.548,28.548,0,0,1,109.2,35.4Z" fill="#41282c" stroke="#2e2b34" stroke-miterlimit="10" stroke-width="0.172"/>
            </g>
            <path id="Path_4931" data-name="Path 4931" d="M63.6,73.6l1.7,70.8a4.32,4.32,0,0,0,4.2,3.9,140.969,140.969,0,0,0,20.8-.6c7.7-1.2,13.7-5.2,17.2-6.5,2.2-.8,4-.5,4.4-2.8l5.2-68.3s-8.2-2.6-20.6,1c-1.4.4-3.3,8.4-4.8,9-2-.7-4.6-8.6-6.6-9a39.772,39.772,0,0,0-18.9.6A4.1,4.1,0,0,0,63.6,73.6Z" fill="#1478ff"/>
          </g>
          <path id="Path_4932" data-name="Path 4932" d="M111.6,140.9c-4.3-.9-12.5,4.8-23,6.2-10.3,1.4-18.5,0-23.3.7" fill="none" stroke="#754c24" stroke-miterlimit="10" stroke-width="3.187"/>
          <rect id="Rectangle_100" data-name="Rectangle 100" width="9.1" height="3.7" transform="translate(84.873 145.558) rotate(-9.375)" fill="#f2a517"/>
        </g>
        <circle id="Ellipse_108" data-name="Ellipse 108" cx="0.8" cy="0.8" r="0.8" transform="translate(91 80.4)" fill="#1478ff"/>
        <circle id="Ellipse_109" data-name="Ellipse 109" cx="0.8" cy="0.8" r="0.8" transform="translate(91 91.4)" fill="#1478ff"/>
        <circle id="Ellipse_110" data-name="Ellipse 110" cx="0.8" cy="0.8" r="0.8" transform="translate(91 102.4)" fill="#1478ff"/>
        <circle id="Ellipse_111" data-name="Ellipse 111" cx="0.8" cy="0.8" r="0.8" transform="translate(90.5 113.4)" fill="#1478ff"/>
        <circle id="Ellipse_112" data-name="Ellipse 112" cx="0.8" cy="0.8" r="0.8" transform="translate(88.9 124.4)" fill="#1478ff"/>
        <circle id="Ellipse_113" data-name="Ellipse 113" cx="0.8" cy="0.8" r="0.8" transform="translate(87.4 135.4)" fill="#1478ff"/>
        <path id="Path_4933" data-name="Path 4933" d="M85.8,73.7l-5.2,3.2-.9-6.4L85.5,67Z" fill="#1e4f84"/>
        <path id="Path_4934" data-name="Path 4934" d="M96.4,67.1s5,1.4,5.8,4L99.3,76l-2.7-5.1Z" fill="#1e4f84"/>
        <g id="Group_1002" data-name="Group 1002">
          <g id="Group_1001" data-name="Group 1001">
            <path id="Path_4935" data-name="Path 4935" d="M113.6,83.7c-2.2-.8.5.3,1.2.7,1.5.8,3,1.7,4.4,2.6,3.6,2.2,7.1,4.5,10.7,6.7,6.8,4.3,13.7,9.1,21.3,12,7.5,2.8,14.7-2,12.5-10.4-2-7.9-7.5-15.6-11.9-22.3-5.8-8.9-11.9-18.1-19.3-25.7-6.4-6.6-16.5,3.5-10.1,10.1,6.8,6.9,12.2,15.3,17.5,23.4A147.333,147.333,0,0,1,147.7,94a29.618,29.618,0,0,1,1.5,3.1c.8,1.7-.1-.5.4.9a15.189,15.189,0,0,0,.6,2c-1.9-3,5.3-8.3,6.2-7.2.7.1.8.1.1-.1-.3-.1-.6-.2-1-.3-1-.5.6.3-.9-.4-1.7-.8-3.4-1.8-5.1-2.7-4.1-2.3-8.1-4.8-12-7.3-6.5-4.1-12.9-9.1-20.1-11.8-8.6-3.5-12.3,10.3-3.8,13.5Z" fill="#1478ff"/>
          </g>
        </g>
        <g id="Group_1004" data-name="Group 1004">
          <g id="Group_1003" data-name="Group 1003">
            <path id="Path_4936" data-name="Path 4936" d="M71.4,70.7c-7.5.3-14.7,5.4-20.8,9.2-7.8,4.9-15.3,10.2-23,15.3L24,97.6c-.5.3-1,.5-1.4.8-1.1.8-.8-.4.5-.1,5.3.1,8.1,2,8.3,5.6,0,.3-.1.6-.1.9-.2-.1.7-2.4.8-2.6a45.134,45.134,0,0,1,2.4-5A159.722,159.722,0,0,1,55.7,66.3c6-6.9-4-17-10.1-10.1A167.429,167.429,0,0,0,21.4,91.5c-2.1,4.3-5.1,9.7-3.9,14.7,1.4,5.6,6.9,7.3,11.7,4.9,7.4-3.7,14.1-9.3,21-13.9,4.5-3,9-5.9,13.6-8.6a56.462,56.462,0,0,1,6-3.1c-1.2.5,1.1-.4,1.3-.4,1.7-.8-.3-.1.4-.2,9-.3,9-14.6-.1-14.2Z" fill="#1478ff"/>
          </g>
        </g>
      </g>
    </g>
    <path id="Path_4938" data-name="Path 4938" d="M115.5,16.8A74.961,74.961,0,1,1,75.8,5.4c1.1,0,2.1,0,3.2.1" fill="none" stroke="#666" stroke-miterlimit="10" stroke-width="1.444"/>
    <g id="Group_1009" data-name="Group 1009">
      <g id="Group_1007" data-name="Group 1007" clip-path="url(#clip-path-2)">
        <path id="Path_4939" data-name="Path 4939" d="M122.8,42.4c-2.2-1.6-3.5-3.3-5.7-6l-.6-.9a20.935,20.935,0,0,0-2.4-2.8h0a13.083,13.083,0,0,0-10.6-3.9,12.638,12.638,0,0,0-4.3,1.3,1.7,1.7,0,0,0-.6,2.6h0a1.7,1.7,0,0,0,2.2.5,8.507,8.507,0,0,1,3.1-.9,10.078,10.078,0,1,1-3.2,19h0a3.48,3.48,0,0,0,2.7,4.9,14.456,14.456,0,0,0,3.6,0,13.722,13.722,0,0,0,6.8-2.8h0l6.8,3.3,7.3-11A58.924,58.924,0,0,1,122.8,42.4Z" opacity="0.15"/>
      </g>
      <g id="Group_1008" data-name="Group 1008" clip-path="url(#clip-path-2)">
        <path id="Path_4941" data-name="Path 4941" d="M52.4,51.7a35.2,35.2,0,0,0,3.9-7.3c.1-.3.2-.7.3-1a16.647,16.647,0,0,1,1.6-3.3h0a12.938,12.938,0,0,1,9.2-6.5,13.6,13.6,0,0,1,4.5.1,1.748,1.748,0,0,1,1.3,2.4h0a1.812,1.812,0,0,1-2,1.1,11.912,11.912,0,0,0-3.3-.1A10.048,10.048,0,1,0,70.7,57a10.427,10.427,0,0,0,5.2-2.4h0A3.454,3.454,0,0,1,74.6,60a12.847,12.847,0,0,1-3.5.9,15.064,15.064,0,0,1-7.3-.9h0l-5.7,5-10-8.7A24.264,24.264,0,0,0,52.4,51.7Z" opacity="0.15"/>
      </g>
    </g>
    <g id="Group_1012" data-name="Group 1012">
      <path id="Path_4943" data-name="Path 4943" d="M122.8,40.5c-2.2-1.6-3.5-3.3-5.7-6l-.6-.9a20.935,20.935,0,0,0-2.4-2.8h0a13.083,13.083,0,0,0-10.6-3.9,12.638,12.638,0,0,0-4.3,1.3,1.7,1.7,0,0,0-.6,2.6h0a1.7,1.7,0,0,0,2.2.5,8.507,8.507,0,0,1,3.1-.9,10.078,10.078,0,1,1-3.2,19h0a3.48,3.48,0,0,0,2.7,4.9,14.456,14.456,0,0,0,3.6,0,13.722,13.722,0,0,0,6.8-2.8h0l6.8,3.3,7.3-11A38.617,38.617,0,0,1,122.8,40.5Z" fill="#ed9380"/>
      <path id="Path_4944" data-name="Path 4944" d="M86.1,34.3c5.3-.7,10,2.2,10.6,6.5a7.224,7.224,0,0,1-1.6,5.4c-2.4-.1-5.1-2.2-7.6-1.8-2.6.3-4.6,3-6.9,3.7a7.283,7.283,0,0,1-3-4.8C77,39.1,80.8,35,86.1,34.3Z" fill="#474747" stroke="#4a433d" stroke-miterlimit="10" stroke-width="0.13"/>
      <circle id="Ellipse_114" data-name="Ellipse 114" cx="1.9" cy="1.9" r="1.9" transform="translate(84.6 35)" fill="#666"/>
      <path id="Path_4945" data-name="Path 4945" d="M52.4,49.8a35.2,35.2,0,0,0,3.9-7.3c.1-.3.2-.7.3-1a16.647,16.647,0,0,1,1.6-3.3h0a12.938,12.938,0,0,1,9.2-6.5,13.6,13.6,0,0,1,4.5.1,1.748,1.748,0,0,1,1.3,2.4h0a1.812,1.812,0,0,1-2,1.1,11.912,11.912,0,0,0-3.3-.1,10.048,10.048,0,1,0,2.8,19.9,10.427,10.427,0,0,0,5.2-2.4h0a3.454,3.454,0,0,1-1.3,5.4,12.847,12.847,0,0,1-3.5.9,15.064,15.064,0,0,1-7.3-.9h0l-5.7,5-10-8.7C48.2,54.5,50.1,52.8,52.4,49.8Z" fill="#ed9380"/>
      <g id="Group_1010" data-name="Group 1010">
        <path id="Path_4946" data-name="Path 4946" d="M70,44.9a6.694,6.694,0,0,1,2.8-6.3l-.4-2.9,5.8,1.9.9.3h0a6.566,6.566,0,0,1,4,5.2A6.358,6.358,0,0,1,81,48.8h0a9.062,9.062,0,0,1-1.6,1.1L74.8,53l-.4-2.8A6.712,6.712,0,0,1,70,44.9Z" fill="#666"/>
        <circle id="Ellipse_115" data-name="Ellipse 115" cx="10" cy="10" r="10" transform="translate(59 35)"/>
        <circle id="Ellipse_116" data-name="Ellipse 116" cx="8.8" cy="8.8" r="8.8" transform="translate(60.2 36.2)" fill="#0acaff"/>
        <path id="Path_4947" data-name="Path 4947" d="M71.7,51.5a7.439,7.439,0,0,0,3.6-3.4" fill="none" stroke="#fff" stroke-linecap="round" stroke-miterlimit="10" stroke-width="1.812"/>
        <path id="Path_4948" data-name="Path 4948" d="M68,38a7.11,7.11,0,0,0-6.1,8" fill="none" stroke="#fff" stroke-linecap="round" stroke-miterlimit="10" stroke-width="1.812"/>
      </g>
      <g id="Group_1011" data-name="Group 1011">
        <path id="Path_4949" data-name="Path 4949" d="M104.4,40.3a6.862,6.862,0,0,0-4.3-5.4L99.7,32l-5.1,3.4a5.582,5.582,0,0,0-.8.5h0a6.624,6.624,0,0,0,1,11.1h0a6.356,6.356,0,0,0,1.8.6l5.2,1.8-.4-2.8A6.129,6.129,0,0,0,104.4,40.3Z" fill="#666"/>
        <circle id="Ellipse_117" data-name="Ellipse 117" cx="10" cy="10" r="10" transform="translate(95.5 30.1)"/>
        <circle id="Ellipse_118" data-name="Ellipse 118" cx="8.8" cy="8.8" r="8.8" transform="translate(96.7 31.3)" fill="#0acaff"/>
        <path id="Path_4950" data-name="Path 4950" d="M104.5,47.2a7.023,7.023,0,0,1-4.3-2.3" fill="none" stroke="#fff" stroke-linecap="round" stroke-miterlimit="10" stroke-width="1.812"/>
        <path id="Path_4951" data-name="Path 4951" d="M104.6,33.1a7.11,7.11,0,0,1,8,6.1" fill="none" stroke="#fff" stroke-linecap="round" stroke-miterlimit="10" stroke-width="1.812"/>
      </g>
    </g>
    <g id="Group_1013" data-name="Group 1013">
      <line id="Line_16" data-name="Line 16" x1="10.4" y1="10.7" transform="translate(47.8 53.7)" fill="none" stroke="#1e4f84" stroke-miterlimit="10" stroke-width="5.085"/>
      <circle id="Ellipse_119" data-name="Ellipse 119" cx="1.1" cy="1.1" r="1.1" transform="translate(53.5 59.7)" fill="#e0e0ff"/>
    </g>
    <g id="Group_1014" data-name="Group 1014">
      <line id="Line_17" data-name="Line 17" y1="10.9" x2="10.1" transform="translate(119.9 44.7)" fill="none" stroke="#1e4f84" stroke-miterlimit="10" stroke-width="5.085"/>
      <circle id="Ellipse_120" data-name="Ellipse 120" cx="1.1" cy="1.1" r="1.1" transform="translate(122.2 50.7)" fill="#e0e0ff"/>
    </g>
    <path id="Path_4952" data-name="Path 4952" d="M85.4,23.7c-3.2-7.4,2.9-9.4-3.3-19.8a16.729,16.729,0,0,1,16.5,9.3A16.558,16.558,0,0,0,100,7.8a11.294,11.294,0,0,1,6.9,6.3h0c2.6,5.9,1.8,11.8-4.1,14.5-1.5.7-2.3-5.5-3.8-5.5-3.4.1-3.7.1-5.9-2.5-.8-.8-7.2,4.2-7.7,3.1Z" fill="#41282c"/>
    <path id="Path_4953" data-name="Path 4953" d="M106.8,100.5c-.1-5.2-4.1-4.7-3.2-12.4a10.507,10.507,0,0,0-7.2,9.7A11.825,11.825,0,0,1,94.2,95a7.4,7.4,0,0,0-2.4,5.5h0a7.555,7.555,0,0,0,7.5,7.5,7.173,7.173,0,0,0,2.9-.6,7.356,7.356,0,0,0,4.6-6.9Zm-3.9-2.4-.5,6.4c0,.5-.3.6-.7.4l-3.5-2,3.3-3.8c.1-.2-.1-.2-.3-.1L97,102.5l-2.1-.4c-.4-.1-.5-.4,0-.6l7.3-3.9C102.6,97.4,103,97.6,102.9,98.1Z" fill="#0acaff"/>
  </g>
</svg>
