<svg xmlns="http://www.w3.org/2000/svg" width="151.444" height="151.444" viewBox="0 0 151.444 151.444">
  <g id="PB8" transform="translate(-0.078 -0.078)">
    <path id="Path_4918" data-name="Path 4918" d="M118.4,116.9C33,135.5-21,92.2,37.3,97.7-17.3,76.5,50.4,62,118.4,116.9Z" opacity="0.13"/>
    <g id="Group_995" data-name="Group 995">
      <path id="Path_4919" data-name="Path 4919" d="M119.3,117C-27,115.8,21.2,10.9,74.6,46.2,65.6-17.1,181.1-15.8,119.3,117Z" fill="#0acaff"/>
      <path id="Path_4920" data-name="Path 4920" d="M113.7,116.9c-124.2-3.4-99.9-84.4-55.9-77.5C56,106.9,115.5,116.9,113.7,116.9Z" fill="#1e4f84" opacity="0.17"/>
      <g id="Group_994" data-name="Group 994">
        <path id="Path_4921" data-name="Path 4921" d="M100.4,91.4A17.841,17.841,0,0,1,94.7,94a10.994,10.994,0,0,1-5.1.1A8.083,8.083,0,0,1,86.9,93a8.265,8.265,0,0,1-2-1.6,11.919,11.919,0,0,1-1.5-1.8,10.14,10.14,0,0,1-1-1.6,11.766,11.766,0,0,1-.8-1.3c-.5-.7-1-1.7-1.7-2.9s-1.5-2.5-2.5-4c-.9-1.5-1.9-3-3-4.6-1-1.6-2.1-3.3-3.2-5s-2.2-3.3-3.4-4.9-2.2-3-3.1-4.3a32.207,32.207,0,0,0-2.6-3.1l4.8-4.5a35.121,35.121,0,0,1,2.6,3.2c1,1.3,2,2.7,3.1,4.3s2.2,3.2,3.4,4.9,2.3,3.4,3.3,5.1l8.8,14c.4.6.8,1.2,1.2,1.7a3.36,3.36,0,0,0,1.6,1,4.464,4.464,0,0,0,2.5-.2,12.35,12.35,0,0,0,3.3-1.6l.6-.4L101,91Z" fill="#fff"/>
        <path id="Path_4922" data-name="Path 4922" d="M96.4,86.2l.6-.4a65.45,65.45,0,0,0,5.5-3.9,55.05,55.05,0,0,0,4.2-3.7,24.511,24.511,0,0,0,2.8-3.2,10.927,10.927,0,0,0,1.4-2.4,5.073,5.073,0,0,0,.2-.9c0-.3.1-.5.1-.8l-2.8,1.8a18.186,18.186,0,0,1-3.1,1.6,18.612,18.612,0,0,1-3.1,1,15.263,15.263,0,0,1-3,.3,8.675,8.675,0,0,1-2.8-.5,10.092,10.092,0,0,1-1.5-.7,8.849,8.849,0,0,1-1.7-1.2,7.657,7.657,0,0,1-1.6-1.9l-.3-.5a21.814,21.814,0,0,1-1.2-2.2,18.4,18.4,0,0,1-1.5-9,9.807,9.807,0,0,1,1.2-4.3,8.378,8.378,0,0,1,2.7-2.9c2.5-1.6,5.4-1.9,8.8-1a16.75,16.75,0,0,1,4.4,1.9,20.183,20.183,0,0,1,4.2,3,26.856,26.856,0,0,1,3.6,3.9,12.735,12.735,0,0,1,1.3,1.9c.6.9,1,1.8,1.5,2.7a15.481,15.481,0,0,1,1.4,5.3A11.682,11.682,0,0,1,117,75a14.018,14.018,0,0,1-2.4,4.5,46.4,46.4,0,0,1-3.7,4.2c-1.4,1.3-3,2.6-4.7,3.9-1.7,1.2-3.5,2.5-5.3,3.6l-.9.6ZM90.6,39.8l-1.7,7.4-7.5-1.7,1.7-7.4ZM96,58a1.978,1.978,0,0,0-.7,1,6.528,6.528,0,0,0-.3,1.7,11.879,11.879,0,0,0,.2,2.5,14.205,14.205,0,0,0,.9,3c.2.4.4.7.6,1.1a10.591,10.591,0,0,0,1,1.2,2.637,2.637,0,0,0,1.6.7,5.022,5.022,0,0,0,2.1-.2,10.62,10.62,0,0,0,2.5-1.1c1-.6,1.9-1.1,2.7-1.6s1.5-1,2.1-1.4a22.468,22.468,0,0,0-4.3-4.4,16.22,16.22,0,0,0-4.8-2.6q-.75-.15-1.8-.3A2.319,2.319,0,0,0,96,58Z" fill="#fff"/>
      </g>
    </g>
    <circle id="Ellipse_105" data-name="Ellipse 105" cx="75" cy="75" r="75" transform="translate(0.7 0.7)" fill="none"/>
    <path id="Path_4923" data-name="Path 4923" d="M142.9,42.3A75,75,0,1,1,75.8.8,81.235,81.235,0,0,1,89.9,2.1" fill="none" stroke="#666" stroke-miterlimit="10" stroke-width="1.444"/>
  </g>
</svg>
