<svg id="Download-android" xmlns="http://www.w3.org/2000/svg" width="46" height="46" viewBox="0 0 46 46">
  <path id="Path_8" data-name="Path 8" d="M0,0H46V46H0Z" transform="translate(0 0)" fill="none"/>
  <path id="Path_9" data-name="Path 9" d="M9.667,34.5a1.922,1.922,0,0,0,1.917,1.917H13.5v6.708a2.875,2.875,0,0,0,5.75,0V36.417h3.833v6.708a2.875,2.875,0,0,0,5.75,0V36.417H30.75A1.922,1.922,0,0,0,32.667,34.5V15.333h-23ZM4.875,15.333A2.871,2.871,0,0,0,2,18.208V31.625a2.875,2.875,0,1,0,5.75,0V18.208A2.871,2.871,0,0,0,4.875,15.333Zm32.583,0a2.871,2.871,0,0,0-2.875,2.875V31.625a2.875,2.875,0,0,0,5.75,0V18.208A2.871,2.871,0,0,0,37.458,15.333ZM27.933,4.14l2.492-2.492a.949.949,0,0,0,0-1.361.949.949,0,0,0-1.361,0L26.227,3.124a11.192,11.192,0,0,0-5.06-1.207,11.354,11.354,0,0,0-5.1,1.208L13.212.288a.949.949,0,0,0-1.361,0,.949.949,0,0,0,0,1.361l2.511,2.511a11.468,11.468,0,0,0-4.7,9.258h23A11.434,11.434,0,0,0,27.933,4.14Zm-10.6,5.443H15.417V7.667h1.917Zm9.583,0H25V7.667h1.917Z" transform="translate(1.833)" fill="#1E4F88"/>
</svg>
