<svg xmlns="http://www.w3.org/2000/svg" viewBox="0 0 50 50"><defs><style>.cls-1{fill:#1E4F88;}.cls-2{fill:none;}</style></defs><title>linux</title><g id="Layer_2" data-name="Layer 2"><g id="Layer_1-2" data-name="Layer 1"><path class="cls-1" d="M26.65,0c4.58,1.58,6.49,4.29,6.67,9.5,0,.66,0,1.33,0,2a11.56,11.56,0,0,0,2.31,7c1.9,2.59,3.55,5.36,5.22,8.11a10.17,10.17,0,0,1,1,7.51,3.53,3.53,0,0,0,.28,1.5,7.42,7.42,0,0,1,.64,2,3.11,3.11,0,0,0,2,3c1.83.93,1.93,2.39.16,3.49-1.38.85-2.87,1.54-4.24,2.4-1.16.72-2.21,1.6-3.33,2.38-.6.41-1.25.73-1.87,1.09H33.76c-.72-.6-1.41-1.23-2.17-1.77a3.77,3.77,0,0,0-1.43-.64,25.16,25.16,0,0,0-9.59.21,1.36,1.36,0,0,0-.81.45c-1,1.46-2.35,1.52-3.84,1.25-.5-.09-1-.28-1.49-.41L6.32,46.92a9.7,9.7,0,0,1-1.17-.33C3.79,46.07,3.48,45.5,4,44.13A6.57,6.57,0,0,0,4.18,40c-.35-1.3.09-2.08,1.43-2.24,2.33-.27,3.6-1.81,4.79-3.52a.71.71,0,0,0,.07-.5,4.91,4.91,0,0,1,.65-3.41,4.34,4.34,0,0,0,.4-.91A31.52,31.52,0,0,1,17.68,17.9a4,4,0,0,0,.71-2.37c0-2.1-.14-4.21-.2-6.32,0-.85,0-1.7,0-2.55C18.31,3,20.11.93,23.69.21c.25,0,.49-.14.73-.21ZM18.4,42.27c.9.81,1.7,2.13,2.63,2.24,3.5.41,7,.11,9.79-2.44a3.58,3.58,0,0,0,1.54-3.32,11.82,11.82,0,0,1,0-1.78c.06-2.12.1-2.17,2.17-2.32A12.21,12.21,0,0,0,34.33,27c-1.44-3.75-3.09-7.42-4.62-11.13-.41-1-1-1-1.81-.55-1.28.73-2.58,1.43-3.88,2.13a2.2,2.2,0,0,1-2.5-.18c-.65-.47-1.27-1-1.8-1.39-.46,1.28-.85,2.61-1.4,3.87-1.38,3.12-3.14,6.12-4.17,9.35-1.43,4.51-.36,5.71,2.46,7.88.79.61,1.59,1.22,2.32,1.89C20.29,40.17,20.16,41.21,18.4,42.27Zm-1.79,6.07a5.22,5.22,0,0,0,1.11-.55c1.36-1.09,1.43-2.39.33-4-1.38-2-2.7-4-4.07-6.07a11.05,11.05,0,0,0-1.15-1.48C11.6,35,11,35,10.31,36.6a2.91,2.91,0,0,1-2.5,1.89,6.79,6.79,0,0,0-1.08.26c-.83.19-1.05.67-1,1.54a15.49,15.49,0,0,1-.27,3.46c-.23,1.24-.15,1.6,1.07,1.78a30,30,0,0,1,7.76,2.16A16.39,16.39,0,0,0,16.61,48.34ZM34.78,36.28l-.29-.14c-.19.29-.5.56-.56.87s.08.89,0,1.33c-.22,2.26-.45,4.53-.71,6.8a2.82,2.82,0,0,0,1.06,3c1.09.73,1.94-.08,2.82-.59.13-.07.23-.19.35-.27,1.71-1.14,3.41-2.29,5.13-3.42.52-.34,1.1-.59,1.63-.92s.51-.71.06-1.08a3.52,3.52,0,0,0-.83-.55,3.3,3.3,0,0,1-2-3.19,8.51,8.51,0,0,0-.37-1.45c-1.16,2.15-2.74,3.06-4.81,2.64C34.82,39,34.93,37.48,34.78,36.28ZM20,14a1.62,1.62,0,0,0,.12.4c1.44,1.74,2.84,3,4.95,1.45.73-.55,1.59-.93,2.37-1.42.28-.19.69-.53.66-.73a1.29,1.29,0,0,0-.72-.75,16.33,16.33,0,0,0-3-1.14,2.76,2.76,0,0,0-1.92.24A19.53,19.53,0,0,0,20,14Zm5.81-2.95c-.11-.95-.19-1.95.89-2.34a1.29,1.29,0,0,1,1.14.39,2,2,0,0,1-.28,2.73c.92.16,1.5-.4,1.76-1.6a3,3,0,0,0-1.95-3.73,2.5,2.5,0,0,0-2.68,2C24.32,9.88,24.66,10.74,25.81,11.08Zm-4-.09c1.09-.58,1.22-2.2.2-3.38a1.44,1.44,0,0,0-2.37,0,3.63,3.63,0,0,0,0,4.41c.47.53.84.52,1.17-.12a1.83,1.83,0,0,1-1-2.29,1.09,1.09,0,0,1,.65-.76,1,1,0,0,1,.88.45A9.36,9.36,0,0,1,21.82,11Z"/><rect class="cls-2" width="50" height="50"/></g></g></svg>
