<svg xmlns="http://www.w3.org/2000/svg" width="22.633" height="30" viewBox="0 0 22.633 30">
  <path id="Hot-Logo-mono" d="M22.633,18.71c-.106-7.792-6.2-7.155-4.823-18.71A16.126,16.126,0,0,0,6.89,14.629,15.987,15.987,0,0,1,3.6,10.389,11.317,11.317,0,0,0,0,18.71H0A11.3,11.3,0,0,0,11.29,30a10.81,10.81,0,0,0,4.346-.9,11.124,11.124,0,0,0,7-10.389ZM16.8,15.053l-.8,9.594c-.053.689-.424.9-1.007.636L9.7,22.314l4.982-5.777c.212-.265-.106-.318-.371-.053l-6.36,5.247-3.074-.583c-.689-.106-.742-.583,0-.954l11.078-5.936C16.325,13.887,16.855,14.2,16.8,15.053Z" fill="#fff"/>
</svg>
