<svg id="Hotgram-Logo-Headr" xmlns="http://www.w3.org/2000/svg" xmlns:xlink="http://www.w3.org/1999/xlink" width="121.569" height="160" viewBox="0 0 121.569 160">
  <defs>
    <linearGradient id="linear-gradient" x1="0.5" y1="1" x2="0.5" gradientUnits="objectBoundingBox">
      <stop offset="0" stop-color="#fff"/>
      <stop offset="0.389" stop-color="#fff"/>
      <stop offset="1" stop-color="#ff6414"/>
    </linearGradient>
  </defs>
  <g id="Group_2" data-name="Group 2">
    <path id="Path_5" data-name="Path 5" d="M121.083,101.2c-.485-40.4-32.649-37.035-25.2-97.3-.061,0-53.546,15.306-57.241,76.232A83.564,83.564,0,0,1,21.32,58.043,58.471,58.471,0,0,0,2.3,101.2v.12c0,32.534,26.591,58.885,59.422,58.885a59.751,59.751,0,0,0,22.957-4.562,58.866,58.866,0,0,0,36.465-54.323A.185.185,0,0,1,121.083,101.2Z" transform="translate(-0.907 -1.538)" fill="#0acfff"/>
    <path id="Path_6" data-name="Path 6" d="M60.754,160C27.258,160,0,132.923,0,99.722v-.06A60.06,60.06,0,0,1,19.5,55.535l1.272-1.2.848,1.561A78.473,78.473,0,0,0,36.646,75.647C41.674,18.071,91.283,2.041,94.493,1.081L96.674,0l-.3,2.522c-4.24,34.1,4.3,47.43,12.6,60.278,6.36,9.906,12.357,19.212,12.6,36.863h-1.393l1.393.06v.06a60.146,60.146,0,0,1-37.313,55.595A62.554,62.554,0,0,1,60.754,160ZM20.11,58.717A57.666,57.666,0,0,0,2.726,99.662l-1.393.12H2.726c0,31.7,26.046,57.516,58.029,57.516a58.275,58.275,0,0,0,22.412-4.443,57.462,57.462,0,0,0,35.617-53.073v-.06c-.182-16.811-6-25.876-12.175-35.422-8.3-13.088-16.96-26.537-13.2-59.977C83.651,7.8,42.34,25.816,39.13,78.649l-.182,2.822-2.12-1.921A83.258,83.258,0,0,1,20.11,58.717Z" fill="url(#linear-gradient)"/>
  </g>
  <g id="Group_4" data-name="Group 4" transform="translate(23.494 75.232)">
    <g id="Group_3" data-name="Group 3">
      <path id="Path_7" data-name="Path 7" d="M67.2,168.99l27.924,15.688c3.089,1.272,5.088.121,5.391-3.453l4.24-50.275c.545-4.422-2.423-6-5.028-4.361L41.642,157.784c-3.937,2.181-3.634,4.543-.121,5.149l16.294,2.908L91.251,138.4c1.575-1.272,3.21-.909,2.059.424Z" transform="translate(-38.787 -125.958)" fill="#fff"/>
    </g>
  </g>
</svg>
